<svg width="32" height="33" viewBox="0 0 32 33" fill="none" xmlns="http://www.w3.org/2000/svg">
<path d="M5.09084 7.81083C6.54122 7.81083 7.71628 6.63476 7.71628 5.18533C7.71628 3.73439 6.54122 2.55933 5.09084 2.55933C3.63984 2.55933 2.46484 3.73439 2.46484 5.18533C2.46484 6.63476 3.63984 7.81083 5.09084 7.81083Z" fill="#386BF6"/>
<path d="M14.0104 15.8149C14.0104 15.7614 14.0015 15.7104 13.9947 15.6588L17.9164 12.8125C18.1628 12.6333 18.2183 12.2868 18.0391 12.0399C17.9351 11.8971 17.7677 11.8116 17.591 11.8116C17.4737 11.8116 17.3618 11.8484 17.2666 11.9172L13.3369 14.7694C13.1906 14.7027 13.0301 14.6629 12.8588 14.6629H10.7227L10.2043 11.7116C9.91962 10.2234 9.32231 9.05469 8.05006 9.05469H2.65631C1.38412 9.05469 0 10.4388 0 11.7116V20.5367C0 21.1729 0.515375 21.6888 1.1515 21.6888C1.46469 21.6888 1.1515 21.6888 1.9555 21.6888L2.39331 29.2152C2.39331 29.8921 2.94256 30.4409 3.61944 30.4409C4.12694 30.4409 5.39431 30.4409 6.07119 30.4409C6.74806 30.4409 7.29681 29.8921 7.29681 29.2152L7.87206 14.3071H7.901L8.23038 15.7614C8.33938 16.455 8.93619 16.9664 9.63813 16.9664H12.859C13.495 16.9664 14.0104 16.4511 14.0104 15.8149ZM4.25163 14.1789V9.98375H5.7595V14.1789L4.95844 15.1238L4.25163 14.1789Z" fill="#386BF6"/>
<path d="M11.8945 3.46704V13.0545H13.4024V4.97485H30.4913V19.3834H13.4024V17.5697H11.8945V20.8912H31.9992V3.46704H11.8945Z" fill="#386BF6"/>
<path d="M19.4884 24.7875C19.4884 23.6124 18.5362 22.6606 17.3616 22.6606C16.1866 22.6606 15.2344 23.6124 15.2344 24.7875C15.2344 25.9615 16.1866 26.9142 17.3616 26.9142C18.5361 26.9142 19.4884 25.9615 19.4884 24.7875Z" fill="#386BF6"/>
<path d="M17.3614 28.0535C15.8452 28.0535 14.5572 29.0484 14.0625 30.4409H20.6603C20.1656 29.0483 18.8776 28.0535 17.3614 28.0535Z" fill="#386BF6"/>
<path d="M28.6602 24.7875C28.6602 23.6124 27.7081 22.6606 26.5335 22.6606C25.3584 22.6606 24.4062 23.6124 24.4062 24.7875C24.4062 25.9615 25.3584 26.9142 26.5335 26.9142C27.7081 26.9142 28.6602 25.9615 28.6602 24.7875Z" fill="#386BF6"/>
<path d="M26.5333 28.0535C25.0171 28.0535 23.7292 29.0484 23.2344 30.4409H29.8322C29.3374 29.0483 28.0495 28.0535 26.5333 28.0535Z" fill="#386BF6"/>
</svg>
