<svg width="32" height="32" viewBox="0 0 32 32" fill="none" xmlns="http://www.w3.org/2000/svg">
<path d="M29.3333 6.46658V22.3199C29.3333 23.6132 28.28 24.7999 26.9867 24.9599L26.5733 25.0132C24.3867 25.3066 21.3067 26.2132 18.8267 27.2532C17.96 27.6132 17 26.9599 17 26.0132V7.46658C17 6.97324 17.28 6.51991 17.72 6.27991C20.16 4.95991 23.8533 3.78658 26.36 3.57324H26.44C28.04 3.57324 29.3333 4.86658 29.3333 6.46658Z" fill="#386BF6"/>
<path d="M14.281 6.27991C11.841 4.95991 8.14763 3.78658 5.64096 3.57324H5.54763C3.94763 3.57324 2.6543 4.86658 2.6543 6.46658V22.3199C2.6543 23.6132 3.70763 24.7999 5.00096 24.9599L5.4143 25.0132C7.60096 25.3066 10.681 26.2132 13.161 27.2532C14.0276 27.6132 14.9876 26.9599 14.9876 26.0132V7.46658C14.9876 6.95991 14.721 6.51991 14.281 6.27991ZM6.66763 10.3199H9.66763C10.2143 10.3199 10.6676 10.7732 10.6676 11.3199C10.6676 11.8799 10.2143 12.3199 9.66763 12.3199H6.66763C6.12096 12.3199 5.66763 11.8799 5.66763 11.3199C5.66763 10.7732 6.12096 10.3199 6.66763 10.3199ZM10.6676 16.3199H6.66763C6.12096 16.3199 5.66763 15.8799 5.66763 15.3199C5.66763 14.7732 6.12096 14.3199 6.66763 14.3199H10.6676C11.2143 14.3199 11.6676 14.7732 11.6676 15.3199C11.6676 15.8799 11.2143 16.3199 10.6676 16.3199Z" fill="#386BF6"/>
</svg>
