<svg width="50" height="50" viewBox="0 0 50 50" fill="none" xmlns="http://www.w3.org/2000/svg">
<path d="M29.0505 40.7429L12.1016 30.5071L12.9883 29.9747L29.9372 40.2112L29.0505 40.7429Z" fill="#F8BA0B"/>
<path d="M29.9268 35.2043L12.9785 24.9685L25.8351 17.999L42.784 28.2355L29.9268 35.2043Z" fill="#F8BA0B"/>
<path d="M29.0381 35.6848L12.0898 25.449L12.9766 24.9685L29.9249 35.2044L29.0381 35.6848Z" fill="#FEF5C7"/>
<path d="M29.9248 35.2043L17.6562 27.795L17.848 27.4495L29.9242 34.7426L29.9248 35.2043Z" fill="#C4961A"/>
<path d="M29.9252 35.2046L29.0384 35.6851L17.2328 28.5551L15.5723 31.5347L29.939 40.2117L29.9252 35.2046Z" fill="#F8BA0B"/>
<path d="M25.8308 16.7935L7.21484 27.9634L9.36412 26.6738L13.6825 24.0828L14.3083 23.7074L15.1951 23.175L25.8308 16.7935Z" fill="#3894A0"/>
<path d="M24.109 43.7095L7.16016 33.4736L11.4821 30.8801L28.431 41.116L24.109 43.7095Z" fill="#F8BA0B"/>
<path d="M21.9489 39.5286L5 29.2927L7.14567 28.1294L24.0946 38.3652L21.9489 39.5286Z" fill="#F8BA0B"/>
<path d="M24.0949 38.3652L21.9492 39.5286L24.0949 38.2415V38.3652Z" fill="#C4961A"/>
<path d="M24.0921 38.3651L21.9464 39.5284L7.15039 30.5927L7.15821 33.4736L24.1071 43.7095L24.0921 38.3651Z" fill="#FEF5C7"/>
<path d="M21.9489 39.5286L5 29.2927L7.14567 28.005L24.0946 38.2415L21.9489 39.5286Z" fill="#F8BA0B"/>
<path d="M24.0895 38.3655L7.14062 28.1296L11.4638 25.7867L28.4127 36.0225L24.0895 38.3655Z" fill="#BBB491"/>
<path d="M24.0895 38.2417L7.14062 28.0052L11.4626 25.4124L28.4115 35.6482L24.0895 38.2417Z" fill="#C9C09B"/>
<path d="M28.4137 36.0225L11.4648 25.7866L12.0871 25.4492L29.0354 35.6851L28.4137 36.0225Z" fill="#F8BA0B"/>
<path d="M29.0381 35.2749L12.0898 25.0384L12.9766 24.5067L29.9255 34.7426L29.0381 35.2749Z" fill="#C9C09B"/>
<path d="M29.0365 35.6848L17.125 28.491L17.2963 28.1849L29.0353 35.275L29.0365 35.6848Z" fill="#C9C09B"/>
<path d="M28.4137 35.6479L11.4648 25.4121L12.0871 25.0385L29.0354 35.275L28.4137 35.6479Z" fill="#C4961A"/>
<path d="M28.4143 35.6478L28.1041 35.834L28.4155 36.022L24.631 38.0732L29.051 40.7429L29.0371 35.6847L17.1257 28.4909L16.9844 28.7452L28.4143 35.6478Z" fill="#FEF5C7"/>
<path d="M24.0924 38.4971L28.4288 41.1162L28.415 36.0223L24.0918 38.3653L24.0924 38.4971Z" fill="#F8BA0B"/>
<path d="M15.0213 32.2698L17.1267 28.4911L12.0898 25.449L12.1031 30.5072L15.0213 32.2698Z" fill="#FEF5C7"/>
<path d="M17.8494 27.4497L29.9256 34.7428L42.7797 27.0298L25.8308 16.7939L15.1951 23.1755L14.3083 23.7078L14.1809 23.7847L12.4897 24.7993L12.2619 24.9355L12.9767 24.5069L17.8494 27.4497ZM12.2619 24.9355L12.2204 24.9605L11.4677 25.4122L12.2619 24.9355ZM16.831 29.0247L15.0226 32.2699L12.1044 30.5073L12.0929 26.1632L11.4689 25.7865L11.7947 25.6097L11.4677 25.4122L9.36412 26.6743L7.21484 27.9638L24.1637 38.1997L28.1064 35.8343L16.831 29.0247Z" fill="#3894A0"/>
<path d="M29.9235 34.7424L12.9746 24.5066L25.8288 16.7936L42.7777 27.0295L29.9235 34.7424Z" fill="#C4961A"/>
<path d="M12.9758 24.9684L12.9746 24.5067L17.8473 27.4494L17.6555 27.7949L12.9758 24.9684Z" fill="#C4961A"/>
<path d="M12.091 25.4486L12.0898 25.0382L17.2992 28.1846L17.1279 28.4907L12.091 25.4486Z" fill="#C9C09B"/>
<path d="M11.466 25.7861L11.4648 25.4118L16.9099 28.7001L16.7542 28.98L11.466 25.7861Z" fill="#C4961A"/>
<path d="M27.2401 10.471L14.3847 18.184L13.4979 18.7157L12.8727 19.0912L8.55431 21.6821L7.19922 22.4956L27.2401 10.471Z" fill="#1E3C5E"/>
<path d="M32.1286 28.4053L15.1797 18.1688L28.0363 11.1999L44.9851 21.4358L32.1286 28.4053Z" fill="#48BBC6"/>
<path d="M32.1297 28.4053L21.3105 21.8713L21.5029 21.5258L32.1284 27.9429L32.1297 28.4053Z" fill="#3894A0"/>
<path d="M31.2419 28.4749L14.293 18.239L15.1797 17.7073L32.1286 27.9432L31.2419 28.4749Z" fill="#296C77"/>
<path d="M15.1789 18.1689L15.1777 17.7072L21.5011 21.5258L21.3087 21.8713L15.1789 18.1689Z" fill="#3894A0"/>
<path d="M32.1266 27.9429L15.1777 17.707L28.0325 9.99404L44.9814 20.2299L32.1266 27.9429Z" fill="#3894A0"/>
<path d="M31.3341 28.4199L21.0098 22.1852L23.2859 18.0997L31.3191 22.9518L31.3341 28.4199Z" fill="#254B7A"/>
<path d="M31.3203 22.9518L44.1757 15.2388L44.1907 20.707L31.3353 28.4199L31.3203 22.9518Z" fill="#1D3858"/>
<path d="M31.2433 28.8859L32.13 28.4054L31.7458 28.173L31.3382 28.4179L31.334 28.4198L31.242 28.4748L21.0584 22.3244L19.2266 25.6108L31.2541 32.8745L31.2433 28.8859Z" fill="#48BBC6"/>
<path d="M14.6507 18.4558L14.293 18.6495L31.2419 28.886L31.2407 28.4749L14.6507 18.4558Z" fill="#348A97"/>
<path d="M31.2426 28.886L20.7812 22.5675L20.952 22.2614L31.2414 28.4749L31.2426 28.886Z" fill="#296C77"/>
<path d="M30.613 28.8503L13.6641 18.6145L14.2899 18.239L31.2388 28.4749L30.613 28.8503Z" fill="#3894A0"/>
<path d="M31.2564 33.9434L18.6758 26.3454L20.7812 22.5673L31.2426 28.8857L31.2564 33.9434Z" fill="#348A97"/>
<path d="M30.6322 34.3186L18.2891 26.8643L20.4089 23.0587L30.6184 29.2247L30.6322 34.3186Z" fill="#48BBC6"/>
<path d="M28.4166 36.0225L16.7559 28.9805L16.9116 28.7006L28.4154 35.6482L28.4166 36.0225Z" fill="#C4961A"/>
<path d="M24.1481 32.7314L7.19922 22.4956L9.34909 21.3297L26.298 31.5662L24.1481 32.7314Z" fill="#48BBC6"/>
<path d="M26.2952 31.5661L24.1453 32.7314L16.8005 28.2954L15.6035 30.444L26.3096 36.9099L26.2952 31.5661Z" fill="#348A97"/>
<path d="M24.1481 32.7314L7.19922 22.4956L9.34849 21.2054L26.2974 31.4413L24.1481 32.7314Z" fill="#3894A0"/>
<path d="M26.2985 31.5664L9.34961 21.3299L13.6686 18.9889L30.6175 29.2253L26.2985 31.5664Z" fill="#348A97"/>
<path d="M26.2965 31.4412L9.34766 21.2053L13.666 18.6143L30.6149 28.8502L26.2965 31.4412Z" fill="#296C77"/>
<path d="M20.6382 22.8243L13.9938 18.8126L13.668 18.9888L20.4819 23.1042L20.6382 22.8243Z" fill="#48BBC6"/>
<path d="M14.3068 23.7074L14.293 18.6491L20.7805 22.5671L18.6751 26.3452L14.3068 23.7074Z" fill="#348A97"/>
<path d="M9.35547 23.7979L9.36328 26.6744L15.6061 30.4443L16.8031 28.2957L9.35547 23.7979Z" fill="#348A97"/>
<path d="M13.6656 18.6144L13.6921 18.5988L13.166 18.9143L13.6656 18.6144ZM15.1782 17.7072L27.2388 10.471L14.788 17.9409L15.1782 17.7072Z" fill="#1E3C5E"/>
<path d="M14.2942 18.6491L14.293 18.2386L20.9524 22.261L20.7817 22.5671L14.2942 18.6491Z" fill="#296C77"/>
<path d="M13.6653 18.9884L13.6641 18.6141L20.561 22.7796L20.4047 23.0588L13.6653 18.9884Z" fill="#3894A0"/>
<path d="M14.3822 18.1839L14.3672 12.7158L23.2829 18.0996L21.0068 22.1851L14.3822 18.1839Z" fill="#254B7A"/>
<path d="M29.9251 35.2042L29.9245 34.7425L29.0371 35.2748L29.0383 35.6847L29.0521 40.7429L29.9389 40.2112L29.9251 35.2042Z" fill="#FEF5C7"/>
<path d="M30.4294 23.4839L13.4805 13.2474L14.3672 12.7157L31.3161 22.9516L30.4294 23.4839Z" fill="#D4DFE6"/>
<path d="M30.6157 29.2251L20.4062 23.0591L20.5626 22.7798L30.6145 28.8502L30.6157 29.2251Z" fill="#3894A0"/>
<path d="M29.8044 23.8586L12.8555 13.6228L13.4807 13.2473L30.4296 23.4838L29.8044 23.8586Z" fill="#254B7A"/>
<path d="M29.8217 29.3276L20.0703 23.4384L22.3464 19.3536L29.8067 23.8589L29.8217 29.3276Z" fill="#254B7A"/>
<path d="M12.8705 19.0912L12.8555 13.6231L22.3441 19.3536L20.068 23.4385L12.8705 19.0912Z" fill="#254B7A"/>
<path d="M25.488 26.4497L8.53906 16.2138L12.8575 13.6229L29.8063 23.8587L25.488 26.4497Z" fill="#D4DFE6"/>
<path d="M24.0918 38.3651L28.415 36.0221L28.4288 41.116L24.1068 43.7095L24.0918 38.3651Z" fill="#FEF5C7"/>
<path d="M24.0895 38.3655L7.14062 28.1296V28.0053L24.0895 38.2418V38.3655Z" fill="#C9C09B"/>
<path d="M24.1631 38.1997L7.21425 27.9638L7.19922 22.4957L24.1481 32.7316L24.1631 38.1997Z" fill="#276470"/>
<path d="M31.3161 22.9514L14.3672 12.7156L27.2225 5.00259L44.1714 15.2384L31.3161 22.9514Z" fill="#254B7A"/>
<path d="M21.9639 44.9973L5.01503 34.7608L5 29.2927L21.9489 39.5286L21.9639 44.9973Z" fill="#775A1D"/>
<path d="M26.2971 31.5664L9.34825 21.3299L9.34766 21.2056L26.2965 31.4414L26.2971 31.5664Z" fill="#296C77"/>
<path d="M31.3184 22.9515L31.3334 28.4196L30.4467 28.9519L30.4316 23.4838L31.3184 22.9515Z" fill="#99A2A8"/>
<path d="M29.8197 29.3276L29.8047 23.8589L30.4299 23.484L30.445 28.9521L29.8197 29.3276Z" fill="#1D3858"/>
<path d="M25.503 31.9187L8.55409 21.6822L8.53906 16.2141L25.488 26.45L25.503 31.9187Z" fill="#D4DFE6"/>
<path d="M29.8067 23.859L29.8217 29.3277L25.5033 31.9187L25.4883 26.45L29.8067 23.859Z" fill="#99A2A8"/>
<path d="M31.2442 28.8855L31.243 28.4744L30.6172 28.8499L30.6184 29.2247L30.6322 34.3186L31.2581 33.9431L31.2442 28.8855Z" fill="#348A97"/>
<path d="M32.1302 28.4053L32.129 27.9429L31.2422 28.4746L31.2434 28.8857L31.2572 33.9434L32.1434 33.4117L32.1302 28.4053Z" fill="#276470"/>
<path d="M44.9867 21.436L44.9837 20.2302L32.1289 27.9431L32.1301 28.4055L32.1433 33.4119L42.7797 27.0297L44.9987 25.6989L44.9867 21.436Z" fill="#348A97"/>
<path d="M30.6165 29.2251L30.6153 28.8502L26.2969 31.4412L26.2975 31.5661L26.3119 36.9099L30.6303 34.3189L30.6165 29.2251Z" fill="#276470"/>
<path d="M26.2983 31.5664L26.2977 31.4414L24.1484 32.7316L24.1635 38.1997L26.3127 36.9101L26.2983 31.5664Z" fill="#348A97"/>
<path d="M42.7836 28.2356L42.78 27.0297L29.9259 34.7427L29.9265 35.2044L29.9403 40.2115L29.0535 40.7431L29.0397 35.6849L29.0385 35.275L28.4169 35.648L28.4181 36.0223L28.4319 41.1161L24.1099 43.7096L24.0949 38.3652L21.9492 39.5286L21.9642 44.9973L42.7951 32.4985L42.7836 28.2356Z" fill="#C4961A"/>
<path d="M23.3539 33.2083L6.40505 22.9718L6.39062 17.5037L23.3389 27.7401L23.3539 33.2083Z" fill="#172637"/>
<path d="M23.3389 27.74L6.39062 17.5035L8.5399 16.2139L25.4888 26.4498L23.3389 27.74Z" fill="#254B7A"/>
<path d="M23.3529 33.2083L23.3379 27.7401L25.4878 26.45L25.5028 31.9187L24.1477 32.7315L23.3529 33.2083Z" fill="#1D3858"/>
</svg>
