<svg width="32" height="33" viewBox="0 0 32 33" fill="none" xmlns="http://www.w3.org/2000/svg">
<path d="M22.3343 5.24675V3.16675C22.3343 2.62008 21.881 2.16675 21.3343 2.16675C20.7876 2.16675 20.3343 2.62008 20.3343 3.16675V5.16675H11.6676V3.16675C11.6676 2.62008 11.2143 2.16675 10.6676 2.16675C10.121 2.16675 9.66762 2.62008 9.66762 3.16675V5.24675C6.06762 5.58008 4.32096 7.72675 4.05429 10.9134C4.02762 11.3001 4.34762 11.6201 4.72096 11.6201H27.281C27.6676 11.6201 27.9876 11.2867 27.9476 10.9134C27.681 7.72675 25.9343 5.58008 22.3343 5.24675Z" fill="#386BF6"/>
<path d="M26.6667 13.6201H5.33333C4.6 13.6201 4 14.2201 4 14.9535V23.1668C4 27.1668 6 29.8335 10.6667 29.8335H21.3333C26 29.8335 28 27.1668 28 23.1668V14.9535C28 14.2201 27.4 13.6201 26.6667 13.6201ZM12.28 24.7801C12.2133 24.8334 12.1467 24.9001 12.08 24.9401C12 24.9935 11.92 25.0335 11.84 25.0601C11.76 25.1001 11.68 25.1268 11.6 25.1401C11.5067 25.1535 11.4267 25.1668 11.3333 25.1668C11.16 25.1668 10.9867 25.1268 10.8267 25.0601C10.6533 24.9935 10.52 24.9001 10.3867 24.7801C10.1467 24.5268 10 24.1801 10 23.8335C10 23.4868 10.1467 23.1401 10.3867 22.8868C10.52 22.7668 10.6533 22.6735 10.8267 22.6068C11.0667 22.5001 11.3333 22.4735 11.6 22.5268C11.68 22.5401 11.76 22.5668 11.84 22.6068C11.92 22.6335 12 22.6735 12.08 22.7268C12.1467 22.7801 12.2133 22.8335 12.28 22.8868C12.52 23.1401 12.6667 23.4868 12.6667 23.8335C12.6667 24.1801 12.52 24.5268 12.28 24.7801ZM12.28 20.1135C12.0267 20.3535 11.68 20.5001 11.3333 20.5001C10.9867 20.5001 10.64 20.3535 10.3867 20.1135C10.1467 19.8601 10 19.5135 10 19.1668C10 18.8201 10.1467 18.4735 10.3867 18.2201C10.76 17.8468 11.3467 17.7268 11.84 17.9401C12.0133 18.0068 12.16 18.1001 12.28 18.2201C12.52 18.4735 12.6667 18.8201 12.6667 19.1668C12.6667 19.5135 12.52 19.8601 12.28 20.1135ZM16.9467 24.7801C16.6933 25.0201 16.3467 25.1668 16 25.1668C15.6533 25.1668 15.3067 25.0201 15.0533 24.7801C14.8133 24.5268 14.6667 24.1801 14.6667 23.8335C14.6667 23.4868 14.8133 23.1401 15.0533 22.8868C15.5467 22.3935 16.4533 22.3935 16.9467 22.8868C17.1867 23.1401 17.3333 23.4868 17.3333 23.8335C17.3333 24.1801 17.1867 24.5268 16.9467 24.7801ZM16.9467 20.1135C16.88 20.1668 16.8133 20.2201 16.7467 20.2735C16.6667 20.3268 16.5867 20.3668 16.5067 20.3935C16.4267 20.4335 16.3467 20.4601 16.2667 20.4734C16.1733 20.4868 16.0933 20.5001 16 20.5001C15.6533 20.5001 15.3067 20.3535 15.0533 20.1135C14.8133 19.8601 14.6667 19.5135 14.6667 19.1668C14.6667 18.8201 14.8133 18.4735 15.0533 18.2201C15.1733 18.1001 15.32 18.0068 15.4933 17.9401C15.9867 17.7268 16.5733 17.8468 16.9467 18.2201C17.1867 18.4735 17.3333 18.8201 17.3333 19.1668C17.3333 19.5135 17.1867 19.8601 16.9467 20.1135ZM21.6133 24.7801C21.36 25.0201 21.0133 25.1668 20.6667 25.1668C20.32 25.1668 19.9733 25.0201 19.72 24.7801C19.48 24.5268 19.3333 24.1801 19.3333 23.8335C19.3333 23.4868 19.48 23.1401 19.72 22.8868C20.2133 22.3935 21.12 22.3935 21.6133 22.8868C21.8533 23.1401 22 23.4868 22 23.8335C22 24.1801 21.8533 24.5268 21.6133 24.7801ZM21.6133 20.1135C21.5467 20.1668 21.48 20.2201 21.4133 20.2735C21.3333 20.3268 21.2533 20.3668 21.1733 20.3935C21.0933 20.4335 21.0133 20.4601 20.9333 20.4734C20.84 20.4868 20.7467 20.5001 20.6667 20.5001C20.32 20.5001 19.9733 20.3535 19.72 20.1135C19.48 19.8601 19.3333 19.5135 19.3333 19.1668C19.3333 18.8201 19.48 18.4735 19.72 18.2201C19.8533 18.1001 19.9867 18.0068 20.16 17.9401C20.4 17.8335 20.6667 17.8068 20.9333 17.8601C21.0133 17.8735 21.0933 17.9001 21.1733 17.9401C21.2533 17.9668 21.3333 18.0068 21.4133 18.0601C21.48 18.1135 21.5467 18.1668 21.6133 18.2201C21.8533 18.4735 22 18.8201 22 19.1668C22 19.5135 21.8533 19.8601 21.6133 20.1135Z" fill="#386BF6"/>
</svg>
