<svg width="38" height="39" viewBox="0 0 38 39" fill="none" xmlns="http://www.w3.org/2000/svg">
<path d="M33.25 36.8542H4.75C4.10083 36.8542 3.5625 36.3159 3.5625 35.6667C3.5625 35.0176 4.10083 34.4792 4.75 34.4792H33.25C33.8992 34.4792 34.4375 35.0176 34.4375 35.6667C34.4375 36.3159 33.8992 36.8542 33.25 36.8542Z" fill="#386BF6"/>
<path d="M8.86667 14.1018H6.33333C5.4625 14.1018 4.75 14.8143 4.75 15.6851V29.3335C4.75 30.2043 5.4625 30.9168 6.33333 30.9168H8.86667C9.7375 30.9168 10.45 30.2043 10.45 29.3335V15.6851C10.45 14.7985 9.7375 14.1018 8.86667 14.1018Z" fill="#386BF6"/>
<path d="M20.2671 9.05103H17.7337C16.8629 9.05103 16.1504 9.76353 16.1504 10.6344V29.3335C16.1504 30.2044 16.8629 30.9169 17.7337 30.9169H20.2671C21.1379 30.9169 21.8504 30.2044 21.8504 29.3335V10.6344C21.8504 9.76353 21.1379 9.05103 20.2671 9.05103Z" fill="#386BF6"/>
<path d="M31.6674 4.00024H29.1341C28.2633 4.00024 27.5508 4.71274 27.5508 5.58358V29.3336C27.5508 30.2044 28.2633 30.9169 29.1341 30.9169H31.6674C32.5383 30.9169 33.2508 30.2044 33.2508 29.3336V5.58358C33.2508 4.71274 32.5383 4.00024 31.6674 4.00024Z" fill="#386BF6"/>
</svg>
