<svg width="50" height="50" viewBox="0 0 50 50" fill="none" xmlns="http://www.w3.org/2000/svg">
<path d="M40.5458 41.6455L40.6204 21.8974L9.4537 8.35591L9.37976 28.104L40.5458 41.6455Z" fill="#348A97"/>
<path d="M10.2694 8.71039L39.8047 21.543C40.2537 21.7381 40.6192 22.2106 40.6174 22.6027L40.5488 40.9396C40.547 41.3279 40.1791 41.4849 39.7307 41.2905L10.1954 28.458C9.74646 28.2628 9.38036 27.7862 9.38215 27.3982L9.45132 9.06172C9.45251 8.66955 9.82099 8.5152 10.2694 8.71039ZM16.8633 26.2445C17.3069 26.4374 17.7243 26.4927 18.0654 26.402C18.6694 26.2401 18.9627 25.6415 18.8518 24.8042C18.4237 21.6466 18.6246 18.8916 19.4504 16.6165C19.5375 16.3685 19.3437 15.9857 19.008 15.7614C18.9538 15.7251 18.8989 15.6955 18.8447 15.6711C18.5686 15.5508 18.3182 15.6029 18.2412 15.8125C17.7732 17.1089 17.4959 18.5469 17.4125 20.1201C17.2443 20.0411 17.0809 19.9675 16.9235 19.8993C13.1993 18.2808 12.4195 19.408 12.2561 20.0111C11.8697 21.4173 13.5309 23.9095 16.1198 25.8078C16.369 25.9905 16.623 26.14 16.8633 26.2445ZM33.1726 26.5666C33.1595 26.4792 33.1451 26.3931 33.1273 26.3082C33.0688 26.0278 32.8107 25.7353 32.5179 25.6082L32.3951 25.5661C32.0552 25.4773 31.8364 25.6643 31.8984 25.9856C32.0039 26.4944 31.9938 27.0576 31.8704 27.5471L31.8334 27.6221C31.769 27.758 31.7219 27.9007 31.6903 28.0502C31.5198 28.3979 31.2717 28.6622 30.9486 28.7676C30.6844 28.8565 30.3851 28.8265 30.0446 28.6784C29.8574 28.597 29.6571 28.4796 29.443 28.326C29.378 28.2794 29.3119 28.2426 29.2469 28.2139C28.9821 28.0991 28.7377 28.138 28.653 28.3292C28.5433 28.567 28.7186 28.9462 29.0495 29.1835C29.412 29.4464 29.7465 29.6362 30.05 29.7682C30.8251 30.1048 31.3975 30.063 31.7744 29.9402C31.8477 29.9158 31.9187 29.8867 31.9866 29.853C32.2174 30.3426 32.5638 30.8474 33.0176 31.3436C33.6734 32.0607 34.3382 32.569 34.9911 32.8525C35.8658 33.2327 36.638 33.1758 37.1704 32.6894C37.9044 32.0149 37.9957 30.6297 37.397 29.2427C36.7173 27.68 35.644 27.0207 35.0639 26.7685C34.408 26.484 33.7414 26.4262 33.1726 26.5666ZM25.562 24.8485C25.6205 24.3527 25.7403 23.8942 25.9204 23.5024C26.0301 23.2674 25.85 22.8832 25.5245 22.6467C25.4595 22.6007 25.3945 22.5633 25.3295 22.5354C25.0677 22.4215 24.8227 22.4609 24.7338 22.6499C24.5448 23.0614 24.4142 23.5375 24.3421 24.0509C23.7989 23.6882 23.2611 23.3189 22.74 22.9493C22.6803 22.907 22.6183 22.8725 22.5575 22.8464C22.2916 22.7307 22.0406 22.7692 21.9547 22.9654C21.8539 23.2036 22.034 23.5887 22.3602 23.8202C22.991 24.2658 23.6331 24.705 24.2777 25.1313C24.2866 25.7039 24.36 26.2979 24.5001 26.8858C24.5675 27.1617 24.8209 27.4407 25.1059 27.565L25.2466 27.6139C25.5871 27.6912 25.7963 27.4919 25.7159 27.1663C25.6187 26.7587 25.5584 26.3474 25.5346 25.9438C26.0736 26.2844 26.609 26.6126 27.1331 26.9224L27.2464 26.9836C27.541 27.1114 27.8045 27.0414 27.8641 26.8045C27.9244 26.5366 27.7038 26.1575 27.3633 25.9587C26.7808 25.6131 26.175 25.2389 25.562 24.8485ZM35.0603 27.85C35.5588 28.0666 35.9654 28.5262 36.2623 29.2087C36.6851 30.1824 36.6225 31.1822 36.1169 31.6497C35.9118 31.8395 35.548 32.0112 34.9953 31.7716C34.6238 31.6097 34.2118 31.2858 33.773 30.8083C32.9788 29.9402 32.8351 29.2795 32.9114 28.8173C32.9722 28.6792 33.0241 28.5343 33.067 28.3835C33.4325 27.7616 34.2965 27.5184 35.0603 27.85ZM16.9742 21.0072C17.1066 21.0642 17.2425 21.1252 17.3815 21.1893C17.3821 22.2106 17.4596 23.2809 17.6092 24.4021C17.6671 24.835 17.5383 25.1479 17.2795 25.2201C17.1638 25.252 17.0285 25.2331 16.8735 25.1653C16.7685 25.1206 16.6546 25.0519 16.5318 24.9621C14.3722 23.3804 13.2631 21.5479 13.479 20.7659C13.6775 20.0394 14.9857 20.1434 16.9742 21.0072Z" fill="#348A97"/>
<path d="M40.5458 41.6455L40.6204 21.8974L9.4537 8.35591L9.37976 28.104L40.5458 41.6455Z" fill="#348A97"/>
<path d="M11.4455 27.9109L40.9349 40.7238L40.9981 23.8588C41.0029 22.6907 39.9094 21.266 38.5595 20.6787L10.7014 8.5753L10.6328 26.8511C10.631 27.2396 10.9971 27.7162 11.4455 27.9109ZM7.28309 7.71871C7.65813 7.55404 8.03377 7.39071 8.40822 7.22603C8.8256 7.04386 9.24237 6.86124 9.65975 6.67951L9.78436 6.62477C10.2298 6.42958 10.8457 6.45695 11.5248 6.75265L41.0607 19.5848C42.4112 20.1713 43.5042 21.5963 43.5 22.7652L43.4308 41.1012C43.4284 41.6805 43.1554 42.0887 42.7153 42.2813C42.5072 42.3728 42.2985 42.464 42.0904 42.5546C41.7983 42.6823 41.5067 42.8103 41.2146 42.9383L40.3393 43.3205L40.214 43.3747C40.6547 43.1828 40.9272 42.7744 40.9295 42.1956L40.9337 41.0604L39.0591 41.8796C38.9106 41.9443 38.7049 41.9357 38.4796 41.8379L8.94425 29.0049C8.49587 28.8098 8.12977 28.3337 8.13096 27.9451L8.20012 9.60867C8.20131 9.41438 8.29195 9.27842 8.43803 9.21381C8.81307 9.05003 9.18811 8.88625 9.56316 8.72247C9.80881 8.61478 10.0539 8.50754 10.2989 8.4003L9.02414 7.8466C8.34442 7.5509 7.7279 7.52397 7.28309 7.71871Z" fill="#B78C1C"/>
<path d="M8.13096 27.9451L8.20012 9.60867C8.20191 9.21605 8.57021 9.06257 9.01859 9.25731L38.5551 22.0903C39.0029 22.2846 39.369 22.758 39.3672 23.1497L39.2986 41.4861C39.2968 41.8747 38.9279 42.0326 38.4796 41.8379L8.94425 29.0049C8.49587 28.8098 8.12977 28.3337 8.13096 27.9451ZM9.02414 7.8466C7.67363 7.25969 6.57336 7.7317 6.56919 8.89969L6.50002 27.2356C6.49525 28.3996 7.58877 29.8297 8.93928 30.4162L38.4752 43.2483C39.8251 43.8357 40.9254 43.3586 40.9295 42.1956L40.9981 23.8588C41.0029 22.6907 39.9094 21.266 38.5595 20.6787L9.02414 7.8466Z" fill="#F8BA0B"/>
<path d="M13.8401 27.4916C13.9879 27.4263 14.193 27.4363 14.4202 27.5345L17.2351 28.7572C17.6877 28.9548 18.049 29.4291 18.0478 29.8171L18.0454 30.4408C18.0454 30.6355 17.9548 30.772 17.8087 30.8357L16.3074 31.4926C16.454 31.4284 16.5441 31.2915 16.5441 31.0973L16.5471 30.4732C16.5482 30.0858 16.1869 29.6103 15.7344 29.4138L12.9195 28.1906C12.6923 28.0919 12.4872 28.0833 12.3393 28.1479L13.8401 27.4916Z" fill="#BAAB65"/>
<path d="M12.9195 28.1906C12.4663 27.9941 12.1034 28.1542 12.101 28.5423L12.0992 29.165C12.0975 29.5568 12.4588 30.0285 12.9119 30.2255L15.7268 31.4482C16.18 31.6456 16.5429 31.4891 16.5441 31.0973L16.5471 30.4732C16.5482 30.0858 16.1869 29.6103 15.7344 29.4138L12.9195 28.1906Z" fill="#FBE68A"/>
<path d="M38.5809 25.5139L12.644 12.0527L11.526 24.8409L37.2394 36.7877L38.5809 25.5139Z" fill="#348A97"/>
</svg>
