<svg width="32" height="32" viewBox="0 0 32 32" fill="none" xmlns="http://www.w3.org/2000/svg">
<path d="M15.9993 2.66675C8.65268 2.66675 2.66602 8.65341 2.66602 16.0001C2.66602 23.3467 8.65268 29.3334 15.9993 29.3334C23.346 29.3334 29.3327 23.3467 29.3327 16.0001C29.3327 8.65341 23.346 2.66675 15.9993 2.66675ZM21.7994 20.7601C21.6127 21.0801 21.2793 21.2534 20.9327 21.2534C20.7593 21.2534 20.586 21.2134 20.426 21.1067L16.2927 18.6401C15.266 18.0267 14.506 16.6801 14.506 15.4934V10.0267C14.506 9.48008 14.9593 9.02675 15.506 9.02675C16.0527 9.02675 16.506 9.48008 16.506 10.0267V15.4934C16.506 15.9734 16.906 16.6801 17.3193 16.9201L21.4527 19.3867C21.9327 19.6667 22.0927 20.2801 21.7994 20.7601Z" fill="#386BF6"/>
</svg>
