<svg width="32" height="33" viewBox="0 0 32 33" fill="none" xmlns="http://www.w3.org/2000/svg">
<path d="M25.9126 5.87939C26.089 6.15662 25.7869 6.47957 25.4665 6.40675V6.40675C24.8398 6.22008 24.1465 6.12675 23.4398 6.12675H18.9562C18.799 6.12675 18.6509 6.0528 18.5564 5.92712L16.9731 3.82008V3.82008C16.7853 3.55401 16.9628 3.16675 17.2885 3.16675H20.9598C23.0411 3.16675 24.8745 4.24772 25.9126 5.87939Z" fill="#386BF6"/>
<path d="M26.8527 9.22008C26.2793 8.80675 25.626 8.50008 24.9194 8.32675C24.4394 8.19341 23.946 8.12675 23.4393 8.12675H18.4793C17.706 8.12675 17.6527 8.06008 17.2393 7.51342L15.3727 5.03341C14.506 3.87341 13.826 3.16675 11.6527 3.16675H8.55935C5.30602 3.16675 2.66602 5.80675 2.66602 9.06008V23.9401C2.66602 27.1934 5.30602 29.8334 8.55935 29.8334H23.4393C26.6927 29.8334 29.3327 27.1934 29.3327 23.9401V14.0201C29.3327 12.0334 28.3593 10.2867 26.8527 9.22008ZM19.186 22.2867H12.7993C12.2793 22.2867 11.8793 21.8734 11.8793 21.3534C11.8793 20.8467 12.2793 20.4201 12.7993 20.4201H19.186C19.706 20.4201 20.1193 20.8467 20.1193 21.3534C20.1193 21.8734 19.706 22.2867 19.186 22.2867Z" fill="#386BF6"/>
</svg>
