<svg width="81" height="44" viewBox="0 0 81 44" fill="none" xmlns="http://www.w3.org/2000/svg">
<path d="M1.69028 23.1818L1.62415 10.5521L3.29405 10.5434L9.94738 20.5985L9.89455 10.5088L11.4414 10.5007L11.5075 23.1216L9.9079 23.13L3.18431 13.084L3.23714 23.1737L1.69028 23.1818ZM20.7785 22.8182C20.5738 22.8955 20.3398 22.967 20.0765 23.0328C19.8541 23.0867 19.5936 23.135 19.295 23.1776C18.9964 23.226 18.6684 23.2511 18.311 23.253C15.4634 23.2679 14.0316 21.7549 14.0157 18.7139C14.0112 17.8643 14.1071 17.146 14.3032 16.5591C14.4994 15.9662 14.7722 15.4755 15.1217 15.087C15.4712 14.6984 15.8858 14.4092 16.3652 14.2191C16.8447 14.0291 17.3628 13.9327 17.9194 13.9297C18.646 13.9259 19.2561 14.0692 19.7498 14.3596C20.2435 14.65 20.6176 15.0348 20.8721 15.5139C21.1324 15.9872 21.2698 16.4962 21.2844 17.0411C21.2852 17.1993 21.2775 17.3985 21.2611 17.6389C21.2506 17.8733 21.2342 18.096 21.2119 18.3071C21.1954 18.5123 21.1756 18.6501 21.1525 18.7205L15.6946 18.7491L15.6963 19.0655C15.7002 19.8213 15.8176 20.4154 16.0484 20.8478C16.2792 21.2802 16.5972 21.5862 17.0024 21.7657C17.4135 21.9393 17.8856 22.0248 18.4188 22.022C18.7528 22.0202 19.0691 22.001 19.3677 21.9643C19.6722 21.9217 19.9415 21.8763 20.1756 21.8282C20.4507 21.774 20.7053 21.7112 20.9393 21.6396L20.7785 22.8182ZM17.9609 15.1336C17.6855 15.1351 17.4191 15.1804 17.1618 15.2697C16.9102 15.353 16.6825 15.4948 16.4784 15.6951C16.2744 15.8954 16.1029 16.16 15.964 16.4888C15.831 16.8118 15.7482 17.2371 15.7158 17.7646L19.873 17.7428C19.8724 17.6315 19.875 17.5582 19.8806 17.523C19.8863 17.4937 19.889 17.4468 19.8887 17.3824L19.888 17.2505C19.8607 16.5065 19.6674 15.9685 19.3082 15.6364C18.949 15.2984 18.4999 15.1308 17.9609 15.1336ZM22.3795 23.0735L25.3617 18.549L22.3323 14.0648L24.0373 14.0559L26.2709 17.6302L28.4494 14.0328L30.172 14.0238L27.1722 18.5396L30.2192 23.0325L28.3999 23.042L26.2808 19.5198L24.1812 23.0641L22.3795 23.0735ZM34.5881 23.1678C34.1897 23.1699 33.8525 23.1218 33.5766 23.0237C33.3007 22.9255 33.0772 22.7568 32.906 22.5174C32.5754 22.0562 32.4071 21.2368 32.4009 20.0591L32.374 14.9263L31.126 14.9329L31.1212 14.0188L32.4308 14.012L32.6446 11.1983L33.9528 10.9366L33.9688 14.0039L36.2188 13.9921L36.2236 14.9062L34 14.9178L34.0287 20.3933C34.032 21.0261 34.087 21.4536 34.1936 21.6757C34.3061 21.8978 34.5762 22.0077 35.0039 22.0054C35.1621 22.0046 35.3144 21.998 35.4608 21.9855C35.6072 21.9671 35.739 21.9459 35.856 21.9219L36.2247 21.8408L36.0901 22.9754C36.0375 22.9991 35.979 23.017 35.9146 23.029C35.8502 23.0469 35.78 23.0619 35.7039 23.0741C35.5751 23.0982 35.417 23.1195 35.2296 23.1381C35.048 23.1566 34.8342 23.1665 34.5881 23.1678Z" fill="#5959DA"/>
<path d="M5.02564 27.8745L5.04051 30.7145L9.62044 30.6905L9.63427 33.3305L5.05433 33.3545L5.07046 36.4344L10.2504 36.4073L10.2647 39.1473L1.66485 39.1923L1.59134 25.1525L10.1912 25.1075L10.2056 27.8474L5.02564 27.8745ZM11.7757 33.5393C11.7697 32.3926 11.9778 31.3849 12.3999 30.516C12.8353 29.647 13.4252 28.9772 14.1694 28.5067C14.9136 28.0361 15.7457 27.7984 16.6657 27.7936C17.399 27.7897 18.0665 27.9396 18.6681 28.2431C19.283 28.5466 19.7652 28.9574 20.1145 29.4756L20.0874 24.2956L23.5074 24.2777L23.5849 39.0775L20.1649 39.0954L20.1565 37.4954C19.8393 38.0304 19.3816 38.4595 18.7833 38.7827C18.1983 39.1057 17.5124 39.2693 16.7258 39.2734C15.8058 39.2782 14.9713 39.0493 14.2222 38.5865C13.473 38.1104 12.8761 37.4402 12.4316 36.5759C12.0003 35.6981 11.7817 34.6859 11.7757 33.5393ZM20.1357 33.5155C20.1312 32.6622 19.8877 31.9901 19.4051 31.4993C18.9359 31.0084 18.3613 30.7648 17.6813 30.7683C17.0013 30.7719 16.4226 31.0216 15.9452 31.5174C15.481 31.9999 15.2512 32.6677 15.2557 33.5211C15.2601 34.3744 15.497 35.0531 15.9663 35.5574C16.4489 36.0482 17.0302 36.2918 17.7102 36.2882C18.3902 36.2847 18.9622 36.035 19.4263 35.5392C19.9037 35.0434 20.1402 34.3688 20.1357 33.5155ZM37.0205 27.847L37.0789 39.0069L33.6589 39.0248L33.651 37.5048C33.3069 37.9999 32.8357 38.4024 32.2373 38.7122C31.6522 39.0086 30.9996 39.1587 30.2796 39.1625C29.4263 39.1669 28.672 38.9842 28.0167 38.6143C27.3614 38.2311 26.8518 37.6804 26.488 36.9623C26.1243 36.2442 25.9398 35.3985 25.9348 34.4251L25.9006 27.9052L29.3006 27.8874L29.3323 33.9474C29.3362 34.694 29.5326 35.273 29.9214 35.6843C30.3102 36.0956 30.8313 36.2995 31.4846 36.2961C32.1513 36.2926 32.6769 36.0832 33.0614 35.6679C33.4459 35.2525 33.6361 34.6715 33.6322 33.9248L33.6005 27.8649L37.0205 27.847Z" fill="#5959DA"/>
<path d="M49.8216 33.13C49.4576 33.13 49.1716 33.0173 48.9636 32.792C48.7556 32.5667 48.6516 32.2893 48.6516 31.96C48.6516 31.8213 48.6949 31.648 48.7816 31.44L55.4116 15.788C55.5329 15.5107 55.7149 15.268 55.9576 15.06C56.2176 14.8347 56.5382 14.722 56.9196 14.722H57.1796C57.5782 14.722 57.8989 14.8347 58.1416 15.06C58.3842 15.268 58.5662 15.5107 58.6876 15.788L65.3176 31.44C65.4042 31.648 65.4476 31.8213 65.4476 31.96C65.4476 32.2893 65.3436 32.5667 65.1356 32.792C64.9276 33.0173 64.6416 33.13 64.2776 33.13C63.7402 33.13 63.3676 32.8873 63.1596 32.402L61.4696 28.346H52.6296L50.9396 32.402C50.7316 32.8873 50.3589 33.13 49.8216 33.13ZM53.5396 26.188H60.5596L57.0496 17.738L53.5396 26.188ZM69.7443 17.036C69.3803 17.036 69.0683 16.906 68.8083 16.646C68.5483 16.386 68.4183 16.074 68.4183 15.71V15.606C68.4183 15.242 68.5483 14.93 68.8083 14.67C69.0683 14.41 69.3803 14.28 69.7443 14.28H69.9003C70.2643 14.28 70.5763 14.41 70.8363 14.67C71.0963 14.93 71.2263 15.242 71.2263 15.606V15.71C71.2263 16.074 71.0963 16.386 70.8363 16.646C70.5763 16.906 70.2643 17.036 69.9003 17.036H69.7443ZM69.7963 33.13C69.4669 33.13 69.1896 33.0173 68.9643 32.792C68.7389 32.5667 68.6263 32.2893 68.6263 31.96V20.806C68.6263 20.4593 68.7389 20.1733 68.9643 19.948C69.1896 19.7227 69.4669 19.61 69.7963 19.61C70.1429 19.61 70.4289 19.7227 70.6543 19.948C70.8796 20.1733 70.9923 20.4593 70.9923 20.806V31.96C70.9923 32.2893 70.8796 32.5667 70.6543 32.792C70.4289 33.0173 70.1429 33.13 69.7963 33.13Z" fill="#5959DA"/>
<path d="M72.3516 4C76.7698 4 80.3516 7.58172 80.3516 12V36C80.3516 40.4183 76.7698 44 72.3516 44H48.3516C43.9333 44 40.3516 40.4183 40.3516 36V26H46.3516V34C46.3516 36.2091 48.1424 38 50.3516 38H70.3516C72.5607 38 74.3516 36.2091 74.3516 34V14C74.3516 11.7909 72.5607 10 70.3516 10H62.3516V4H72.3516Z" fill="#5959DA"/>
<path d="M57.3516 7C57.3516 5.34315 58.6947 4 60.3516 4H62.3516V10H60.3516C58.6947 10 57.3516 8.65685 57.3516 7Z" fill="#5959DA"/>
<path d="M43.3516 21C45.0084 21 46.3516 22.3431 46.3516 24V26H40.3516V24C40.3516 22.3431 41.6947 21 43.3516 21Z" fill="#5959DA"/>
<path d="M48.4256 1.28082C48.4256 4.49618 45.7725 7.10274 42.4997 7.10274C45.7725 7.10274 48.4256 9.7093 48.4256 12.9247C48.4256 9.7093 51.0788 7.10274 54.3516 7.10274C51.0788 7.10274 48.4256 4.49618 48.4256 1.28082Z" fill="#5959DA"/>
<path d="M42.4997 8.84932C42.4997 11.1001 40.6425 12.9247 38.3516 12.9247C40.6425 12.9247 42.4997 14.7493 42.4997 17C42.4997 14.7493 44.3569 12.9247 46.6479 12.9247C44.3569 12.9247 42.4997 11.1001 42.4997 8.84932Z" fill="#5959DA"/>
<path d="M42.4997 0C42.4997 1.28614 41.4385 2.32877 40.1293 2.32877C41.4385 2.32877 42.4997 3.37139 42.4997 4.65753C42.4997 3.37139 43.561 2.32877 44.8701 2.32877C43.561 2.32877 42.4997 1.28614 42.4997 0Z" fill="#5959DA"/>
</svg>
