<svg width="32" height="33" viewBox="0 0 32 33" fill="none" xmlns="http://www.w3.org/2000/svg">
<path d="M21.3327 3.16675H10.666C5.33268 3.16675 2.66602 5.83341 2.66602 11.1667V28.5001C2.66602 29.2334 3.26602 29.8334 3.99935 29.8334H21.3327C26.666 29.8334 29.3327 27.1667 29.3327 21.8334V11.1667C29.3327 5.83341 26.666 3.16675 21.3327 3.16675ZM18.666 20.8334H9.33268C8.78602 20.8334 8.33268 20.3801 8.33268 19.8334C8.33268 19.2867 8.78602 18.8334 9.33268 18.8334H18.666C19.2127 18.8334 19.666 19.2867 19.666 19.8334C19.666 20.3801 19.2127 20.8334 18.666 20.8334ZM22.666 14.1667H9.33268C8.78602 14.1667 8.33268 13.7134 8.33268 13.1667C8.33268 12.6201 8.78602 12.1667 9.33268 12.1667H22.666C23.2127 12.1667 23.666 12.6201 23.666 13.1667C23.666 13.7134 23.2127 14.1667 22.666 14.1667Z" fill="#386BF6"/>
</svg>
