<svg width="28" height="29" viewBox="0 0 28 29" fill="none" xmlns="http://www.w3.org/2000/svg">
<path d="M25.2709 12.6801L24.1275 17.5568C23.1475 21.7684 21.2109 23.4718 17.5709 23.1218C16.9875 23.0751 16.3575 22.9701 15.6809 22.8068L13.7209 22.3401C8.85586 21.1851 7.35086 18.7818 8.49419 13.9051L9.63753 9.01676C9.87086 8.02509 10.1509 7.16176 10.5009 6.45009C11.8659 3.62676 14.1875 2.86842 18.0842 3.79009L20.0325 4.24509C24.9209 5.38842 26.4142 7.80342 25.2709 12.6801Z" stroke="#386BF6" stroke-width="1.5" stroke-linecap="round" stroke-linejoin="round"/>
<path d="M17.5694 23.1216C16.8461 23.6116 15.9361 24.02 14.8278 24.3816L12.9844 24.9883C8.35276 26.4816 5.91442 25.2333 4.40942 20.6016L2.91609 15.9933C1.42275 11.3616 2.65942 8.91162 7.29109 7.41828L9.13442 6.81162C9.61275 6.65995 10.0678 6.53162 10.4994 6.44995C10.1494 7.16162 9.86942 8.02495 9.63609 9.01662L8.49276 13.905C7.34942 18.7816 8.85442 21.185 13.7194 22.34L15.6794 22.8066C16.3561 22.97 16.9861 23.075 17.5694 23.1216Z" stroke="#386BF6" stroke-width="1.5" stroke-linecap="round" stroke-linejoin="round"/>
<path d="M14.7461 10.4517L20.4044 11.8867" stroke="#386BF6" stroke-width="1.5" stroke-linecap="round" stroke-linejoin="round"/>
<path d="M13.6035 14.9666L16.9868 15.8299" stroke="#386BF6" stroke-width="1.5" stroke-linecap="round" stroke-linejoin="round"/>
</svg>
