<svg width="38" height="39" viewBox="0 0 38 39" fill="none" xmlns="http://www.w3.org/2000/svg">
<path d="M34.8333 7.84599V26.6718C34.8333 28.2077 33.5825 29.6168 32.0467 29.8068L31.5558 29.8702C28.9592 30.2185 25.3017 31.2952 22.3567 32.5302C21.3275 32.9577 20.1875 32.1818 20.1875 31.0577V9.03349C20.1875 8.44766 20.52 7.90932 21.0425 7.62432C23.94 6.05682 28.3258 4.66349 31.3025 4.41016H31.3975C33.2975 4.41016 34.8333 5.94599 34.8333 7.84599Z" fill="#386BF6"/>
<path d="M16.9571 7.62432C14.0596 6.05682 9.67372 4.66349 6.69706 4.41016H6.58622C4.68622 4.41016 3.15039 5.94599 3.15039 7.84599V26.6718C3.15039 28.2077 4.40122 29.6168 5.93706 29.8068L6.42789 29.8702C9.02456 30.2185 12.6821 31.2952 15.6271 32.5302C16.6562 32.9577 17.7962 32.1818 17.7962 31.0577V9.03349C17.7962 8.43182 17.4796 7.90932 16.9571 7.62432ZM7.91622 12.4218H11.4787C12.1279 12.4218 12.6662 12.9602 12.6662 13.6093C12.6662 14.2743 12.1279 14.7968 11.4787 14.7968H7.91622C7.26706 14.7968 6.72872 14.2743 6.72872 13.6093C6.72872 12.9602 7.26706 12.4218 7.91622 12.4218ZM12.6662 19.5468H7.91622C7.26706 19.5468 6.72872 19.0243 6.72872 18.3593C6.72872 17.7102 7.26706 17.1718 7.91622 17.1718H12.6662C13.3154 17.1718 13.8537 17.7102 13.8537 18.3593C13.8537 19.0243 13.3154 19.5468 12.6662 19.5468Z" fill="#386BF6"/>
</svg>
