<svg width="32" height="32" viewBox="0 0 55 55" fill="none" xmlns="http://www.w3.org/2000/svg">
<path d="M50.9553 22.9166V34.3749C50.9553 45.8333 52.2353 50.4166 42.125 50.4166H19.841C9.73075 50.4166 10.5141 45.8333 10.5141 34.3749V20.6249C10.5141 9.16659 9.73075 4.58325 19.841 4.58325H34.7788" stroke="#292D32" stroke-width="1.5" stroke-linecap="round" stroke-linejoin="round"/>
<path d="M50.9558 22.9166H42.8675C36.8014 22.9166 34.7793 20.6249 34.7793 13.7499V4.58325L50.9558 22.9166Z" stroke="#292D32" stroke-width="1.5" stroke-linecap="round" stroke-linejoin="round"/>
<rect y="33" width="29.1176" height="14" rx="2" fill="#CC302C"/>
<path d="M11.0286 39.24C11.0286 39.6467 10.9353 40.02 10.7486 40.36C10.5619 40.6933 10.2753 40.9633 9.88859 41.17C9.50193 41.3767 9.02193 41.48 8.44859 41.48H7.38859V44H5.67859V36.98H8.44859C9.00859 36.98 9.48193 37.0767 9.86859 37.27C10.2553 37.4633 10.5453 37.73 10.7386 38.07C10.9319 38.41 11.0286 38.8 11.0286 39.24ZM8.31859 40.12C8.64526 40.12 8.88859 40.0433 9.04859 39.89C9.20859 39.7367 9.28859 39.52 9.28859 39.24C9.28859 38.96 9.20859 38.7433 9.04859 38.59C8.88859 38.4367 8.64526 38.36 8.31859 38.36H7.38859V40.12H8.31859ZM14.5488 36.98C15.2888 36.98 15.9355 37.1267 16.4888 37.42C17.0422 37.7133 17.4688 38.1267 17.7688 38.66C18.0755 39.1867 18.2288 39.7967 18.2288 40.49C18.2288 41.1767 18.0755 41.7867 17.7688 42.32C17.4688 42.8533 17.0388 43.2667 16.4788 43.56C15.9255 43.8533 15.2822 44 14.5488 44H11.9188V36.98H14.5488ZM14.4388 42.52C15.0855 42.52 15.5888 42.3433 15.9488 41.99C16.3088 41.6367 16.4888 41.1367 16.4888 40.49C16.4888 39.8433 16.3088 39.34 15.9488 38.98C15.5888 38.62 15.0855 38.44 14.4388 38.44H13.6288V42.52H14.4388ZM23.7545 36.98V38.35H20.8945V39.83H23.0345V41.16H20.8945V44H19.1845V36.98H23.7545Z" fill="white"/>
</svg>
