<svg width="28" height="29" viewBox="0 0 28 29" fill="none" xmlns="http://www.w3.org/2000/svg">
<path d="M14 18C15.933 18 17.5 16.433 17.5 14.5C17.5 12.567 15.933 11 14 11C12.067 11 10.5 12.567 10.5 14.5C10.5 16.433 12.067 18 14 18Z" stroke="currentColor" stroke-width="1.5" stroke-miterlimit="10" stroke-linecap="round" stroke-linejoin="round"/>
<path d="M2.33398 15.5268V13.4734C2.33398 12.2601 3.32565 11.2568 4.55065 11.2568C6.66232 11.2568 7.52565 9.76342 6.46398 7.93176C5.85732 6.88176 6.21898 5.51676 7.28065 4.91009L9.29898 3.75509C10.2207 3.20676 11.4107 3.53342 11.959 4.45509L12.0873 4.67676C13.1373 6.50842 14.864 6.50842 15.9257 4.67676L16.054 4.45509C16.6023 3.53342 17.7923 3.20676 18.714 3.75509L20.7323 4.91009C21.794 5.51676 22.1557 6.88176 21.549 7.93176C20.4873 9.76342 21.3507 11.2568 23.4623 11.2568C24.6757 11.2568 25.679 12.2484 25.679 13.4734V15.5268C25.679 16.7401 24.6873 17.7434 23.4623 17.7434C21.3507 17.7434 20.4873 19.2368 21.549 21.0684C22.1557 22.1301 21.794 23.4834 20.7323 24.0901L18.714 25.2451C17.7923 25.7934 16.6023 25.4668 16.054 24.5451L15.9257 24.3234C14.8757 22.4918 13.149 22.4918 12.0873 24.3234L11.959 24.5451C11.4107 25.4668 10.2207 25.7934 9.29898 25.2451L7.28065 24.0901C6.21898 23.4834 5.85732 22.1184 6.46398 21.0684C7.52565 19.2368 6.66232 17.7434 4.55065 17.7434C3.32565 17.7434 2.33398 16.7401 2.33398 15.5268Z" stroke="currentColor" stroke-width="1.5" stroke-miterlimit="10" stroke-linecap="round" stroke-linejoin="round"/>
</svg>
