<svg width="28" height="28" viewBox="0 0 28 28" fill="none" xmlns="http://www.w3.org/2000/svg">
<path d="M12.2385 2.60157L6.41685 4.79491C5.07518 5.29657 3.97852 6.88324 3.97852 8.30657V16.9749C3.97852 18.3516 4.88852 20.1599 5.99685 20.9882L11.0135 24.7332C12.6585 25.9699 15.3652 25.9699 17.0102 24.7332L22.0268 20.9882C23.1352 20.1599 24.0452 18.3516 24.0452 16.9749V8.30657C24.0452 6.87157 22.9485 5.28491 21.6068 4.78324L15.7852 2.60157C14.7935 2.23991 13.2068 2.23991 12.2385 2.60157Z" stroke="currentColor" stroke-width="1.5" stroke-linecap="round" stroke-linejoin="round"/>
<path d="M13.5458 14.1703C13.9201 13.4946 14.6396 13.096 15.0576 12.4981C15.5 11.871 15.2521 10.6994 13.9979 10.6994C13.1764 10.6994 12.7729 11.3217 12.6028 11.8369L11.3438 11.3071C11.6889 10.2717 12.6271 9.38208 13.9931 9.38208C15.1354 9.38208 15.9181 9.90222 16.3167 10.5536C16.6569 11.1126 16.8562 12.1578 16.3312 12.9356C15.7479 13.796 15.1889 14.0585 14.8875 14.6126C14.766 14.8362 14.7174 14.9821 14.7174 15.7015H13.3125C13.3076 15.3224 13.2493 14.705 13.5458 14.1703ZM14.9701 17.646C14.9701 18.1807 14.5326 18.6182 13.9979 18.6182C13.4632 18.6182 13.0257 18.1807 13.0257 17.646C13.0257 17.1112 13.4632 16.6737 13.9979 16.6737C14.5326 16.6737 14.9701 17.1112 14.9701 17.646Z" fill="currentColor"/>
</svg>
