<svg width="28" height="29" viewBox="0 0 28 29" fill="none" xmlns="http://www.w3.org/2000/svg">
<path d="M17.9564 6.5785L19.6014 9.86849C19.8231 10.3235 20.4181 10.7551 20.9197 10.8485L23.8948 11.3385C25.7964 11.6535 26.2397 13.0302 24.8747 14.4068L22.5531 16.7285C22.1681 17.1135 21.9464 17.8718 22.0748 18.4202L22.7397 21.2902C23.2647 23.5535 22.0514 24.4402 20.0564 23.2502L17.2681 21.5935C16.7664 21.2902 15.9264 21.2902 15.4247 21.5935L12.6364 23.2502C10.6414 24.4285 9.42807 23.5535 9.95307 21.2902L10.6181 18.4202C10.7464 17.8835 10.5247 17.1252 10.1397 16.7285L7.81809 14.4068C6.45309 13.0418 6.89642 11.6651 8.79808 11.3385L11.7731 10.8485C12.2747 10.7668 12.8697 10.3235 13.0914 9.86849L14.7364 6.5785C15.6114 4.7935 17.0581 4.7935 17.9564 6.5785Z" stroke="#386BF6" stroke-width="1.5" stroke-linecap="round" stroke-linejoin="round"/>
<path d="M9.33203 6.3335H2.33203" stroke="#386BF6" stroke-width="1.5" stroke-linecap="round" stroke-linejoin="round"/>
<path d="M5.83203 22.6665H2.33203" stroke="#386BF6" stroke-width="1.5" stroke-linecap="round" stroke-linejoin="round"/>
<path d="M3.4987 14.5H2.33203" stroke="#386BF6" stroke-width="1.5" stroke-linecap="round" stroke-linejoin="round"/>
</svg>
