<svg width="28" height="28" viewBox="0 0 28 28" fill="none" xmlns="http://www.w3.org/2000/svg">
<path d="M21.7591 5.35507C19.7058 3.48841 16.9875 2.36841 14.0008 2.36841C7.58414 2.36841 2.36914 7.58341 2.36914 14.0001C2.36914 20.4167 7.58414 25.6317 14.0008 25.6317C16.9875 25.6317 19.7058 24.5117 21.7591 22.6451C24.1391 20.5334 25.6325 17.4301 25.6325 14.0001C25.6325 10.5701 24.1391 7.46674 21.7591 5.35507ZM13.9658 19.1217C13.9425 21.0467 12.5075 21.5134 11.1658 20.9767C8.40081 19.8684 6.45247 17.1617 6.45247 14.0001C6.45247 10.8384 8.40081 8.13174 11.1658 7.01174C12.5075 6.47508 13.9425 6.95341 13.9658 8.86674V19.1217Z" fill="currentColor"/>
</svg>
