<svg width="32" height="33" viewBox="0 0 32 33" fill="none" xmlns="http://www.w3.org/2000/svg">
<path d="M15.9993 3.16675C8.65268 3.16675 2.66602 9.15341 2.66602 16.5001C2.66602 23.8467 8.65268 29.8334 15.9993 29.8334C23.346 29.8334 29.3327 23.8467 29.3327 16.5001C29.3327 9.15341 23.346 3.16675 15.9993 3.16675ZM22.3727 13.4334L14.8127 20.9934C14.626 21.1801 14.3727 21.2867 14.106 21.2867C13.8393 21.2867 13.586 21.1801 13.3993 20.9934L9.62602 17.2201C9.23935 16.8334 9.23935 16.1934 9.62602 15.8067C10.0127 15.4201 10.6527 15.4201 11.0393 15.8067L14.106 18.8734L20.9593 12.0201C21.346 11.6334 21.986 11.6334 22.3727 12.0201C22.7594 12.4067 22.7594 13.0334 22.3727 13.4334Z" fill="#386BF6"/>
</svg>
