<svg width="28" height="29" viewBox="0 0 28 29" fill="none" xmlns="http://www.w3.org/2000/svg">
<path d="M14 2.83325V10.9999L16.3333 8.66659" stroke="currentColor" stroke-width="1.5" stroke-linecap="round" stroke-linejoin="round"/>
<path d="M13.9993 11.0001L11.666 8.66675" stroke="currentColor" stroke-width="1.5" stroke-linecap="round" stroke-linejoin="round"/>
<path d="M2.31055 15.6667H7.45555C7.89888 15.6667 8.29555 15.9117 8.49388 16.3084L9.85888 19.0384C10.2555 19.8317 11.0605 20.3334 11.9472 20.3334H16.0655C16.9522 20.3334 17.7572 19.8317 18.1539 19.0384L19.5189 16.3084C19.7172 15.9117 20.1255 15.6667 20.5572 15.6667H25.6439" stroke="currentColor" stroke-width="1.5" stroke-linecap="round" stroke-linejoin="round"/>
<path d="M8.16732 5.31836C4.03732 5.92503 2.33398 8.35169 2.33398 13.3334V18C2.33398 23.8334 4.66732 26.1667 10.5007 26.1667H17.5007C23.334 26.1667 25.6673 23.8334 25.6673 18V13.3334C25.6673 8.35169 23.964 5.92503 19.834 5.31836" stroke="currentColor" stroke-width="1.5" stroke-linecap="round" stroke-linejoin="round"/>
</svg>
